<?xml version="1.0" encoding="UTF-8" standalone="no"?>
<!DOCTYPE svg PUBLIC "-//W3C//DTD SVG 1.1//EN"
 "http://www.w3.org/Graphics/SVG/1.1/DTD/svg11.dtd">
<!-- Generated by graphviz version 2.43.0 (0)
 -->
<!-- Title: G Pages: 1 -->
<svg width="428pt" height="354pt"
 viewBox="0.00 0.00 428.00 354.00" xmlns="http://www.w3.org/2000/svg" xmlns:xlink="http://www.w3.org/1999/xlink">
<g id="graph0" class="graph" transform="scale(1 1) rotate(0) translate(4 350)">
<title>G</title>
<polygon fill="white" stroke="transparent" points="-4,4 -4,-350 424,-350 424,4 -4,4"/>
<g id="clust1" class="cluster">
<title>cluster_root</title>
<g id="a_clust1"><a xlink:title="eventq_index=0&#10;full_system=false&#10;sim_quantum=0&#10;time_sync_enable=false&#10;time_sync_period=100000000000&#10;time_sync_spin_threshold=100000000">
<path fill="#bab6ae" stroke="#000000" d="M20,-8C20,-8 400,-8 400,-8 406,-8 412,-14 412,-20 412,-20 412,-326 412,-326 412,-332 406,-338 400,-338 400,-338 20,-338 20,-338 14,-338 8,-332 8,-326 8,-326 8,-20 8,-20 8,-14 14,-8 20,-8"/>
<text text-anchor="middle" x="210" y="-322.8" font-family="Arial" font-size="14.00" fill="#000000">root </text>
<text text-anchor="middle" x="210" y="-307.8" font-family="Arial" font-size="14.00" fill="#000000">: Root</text>
</a>
</g>
</g>
<g id="clust2" class="cluster">
<title>cluster_system</title>
<g id="a_clust2"><a xlink:title="auto_unlink_shared_backstore=false&#10;cache_line_size=64&#10;eventq_index=0&#10;exit_on_work_items=false&#10;init_param=0&#10;m5ops_base=0&#10;mem_mode=timing&#10;mem_ranges=0:8589934592&#10;memories=system.dcache_ctrl.dram system.dcache_ctrl.far_memory&#10;mmap_using_noreserve=false&#10;multi_thread=false&#10;&#10;um_work_ids=16&#10;&#13;eadfile=&#10;&#13;edirect_paths=&#10;shadow_rom_ranges=&#10;shared_backstore=&#10;symbolfile=&#10;thermal_components=&#10;thermal_model=Null&#10;work_begin_ckpt_count=0&#10;work_begin_cpu_id_exit=&#45;1&#10;work_begin_exit_count=0&#10;work_cpus_ckpt_count=0&#10;work_end_ckpt_count=0&#10;work_end_exit_count=0&#10;work_item_id=&#45;1&#10;workload=system.workload">
<path fill="#e4e7eb" stroke="#000000" d="M28,-16C28,-16 392,-16 392,-16 398,-16 404,-22 404,-28 404,-28 404,-280 404,-280 404,-286 398,-292 392,-292 392,-292 28,-292 28,-292 22,-292 16,-286 16,-280 16,-280 16,-28 16,-28 16,-22 22,-16 28,-16"/>
<text text-anchor="middle" x="210" y="-276.8" font-family="Arial" font-size="14.00" fill="#000000">system </text>
<text text-anchor="middle" x="210" y="-261.8" font-family="Arial" font-size="14.00" fill="#000000">: System</text>
</a>
</g>
</g>
<g id="clust7" class="cluster">
<title>cluster_system_generator</title>
<g id="a_clust7"><a xlink:title="clk_domain=system.clk_domain&#10;cpu_id=&#45;1&#10;elastic_req=false&#10;eventq_index=0&#10;max_outstanding_reqs=0&#10;&#10;umThreads=1&#10;power_model=&#10;power_state=system.generator.power_state&#10;progress_check=1000000000&#10;sids=&#10;socket_id=0&#10;ssids=&#10;stream_gen=none&#10;system=system">
<path fill="#bab6ae" stroke="#000000" d="M304,-155C304,-155 384,-155 384,-155 390,-155 396,-161 396,-167 396,-167 396,-234 396,-234 396,-240 390,-246 384,-246 384,-246 304,-246 304,-246 298,-246 292,-240 292,-234 292,-234 292,-167 292,-167 292,-161 298,-155 304,-155"/>
<text text-anchor="middle" x="344" y="-230.8" font-family="Arial" font-size="14.00" fill="#000000">generator </text>
<text text-anchor="middle" x="344" y="-215.8" font-family="Arial" font-size="14.00" fill="#000000">: PyTrafficGen</text>
</a>
</g>
</g>
<g id="clust9" class="cluster">
<title>cluster_system_dcache_ctrl</title>
<g id="a_clust9"><a xlink:title="addr_size=64&#10;block_size=64&#10;clk_domain=system.clk_domain&#10;command_window=10000&#10;crb_max_size=32&#10;dram=system.dcache_ctrl.dram&#10;dram_cache_size=1073741824&#10;eventq_index=0&#10;far_mem_write_queue_max_size=128&#10;far_memory=system.dcache_ctrl.far_memory&#10;mem_sched_policy=frfcfs&#10;min_reads_per_switch=16&#10;min_writes_per_switch=16&#10;orb_max_size=512&#10;power_model=&#10;power_state=system.dcache_ctrl.power_state&#10;qos_policy=Null&#10;qos_priorities=1&#10;qos_priority_escalation=false&#10;qos_q_policy=fifo&#10;qos_requestors= &#160;&#160;&#160;&#160;&#160;&#160;&#160;&#160;&#160;&#160;&#160;&#160;&#160;&#160;&#10;qos_syncro_scheduler=false&#10;qos_turnaround_policy=Null&#10;static_backend_latency=10000&#10;static_frontend_latency=10000&#10;system=system&#10;write_high_thresh_perc=85&#10;write_low_thresh_perc=50">
<path fill="#bab6ae" stroke="#000000" d="M205,-24C205,-24 337,-24 337,-24 343,-24 349,-30 349,-36 349,-36 349,-103 349,-103 349,-109 343,-115 337,-115 337,-115 205,-115 205,-115 199,-115 193,-109 193,-103 193,-103 193,-36 193,-36 193,-30 199,-24 205,-24"/>
<text text-anchor="middle" x="271" y="-99.8" font-family="Arial" font-size="14.00" fill="#000000">dcache_ctrl </text>
<text text-anchor="middle" x="271" y="-84.8" font-family="Arial" font-size="14.00" fill="#000000">: DCacheCtrl</text>
</a>
</g>
</g>
<g id="clust15" class="cluster">
<title>cluster_system_farMem_ctrl</title>
<g id="a_clust15"><a xlink:title="clk_domain=system.clk_domain&#10;command_window=10000&#10;dram=system.dcache_ctrl.far_memory&#10;eventq_index=0&#10;mem_sched_policy=frfcfs&#10;min_reads_per_switch=16&#10;min_writes_per_switch=16&#10;power_model=&#10;power_state=system.farMem_ctrl.power_state&#10;qos_policy=Null&#10;qos_priorities=1&#10;qos_priority_escalation=false&#10;qos_q_policy=fifo&#10;qos_requestors= &#160;&#160;&#160;&#160;&#160;&#160;&#160;&#160;&#160;&#160;&#160;&#160;&#160;&#160;&#10;qos_syncro_scheduler=false&#10;qos_turnaround_policy=Null&#10;static_backend_latency=10000&#10;static_frontend_latency=10000&#10;system=system&#10;write_high_thresh_perc=85&#10;write_low_thresh_perc=50">
<path fill="#bab6ae" stroke="#000000" d="M57,-24C57,-24 126,-24 126,-24 132,-24 138,-30 138,-36 138,-36 138,-103 138,-103 138,-109 132,-115 126,-115 126,-115 57,-115 57,-115 51,-115 45,-109 45,-103 45,-103 45,-36 45,-36 45,-30 51,-24 57,-24"/>
<text text-anchor="middle" x="91.5" y="-99.8" font-family="Arial" font-size="14.00" fill="#000000">farMem_ctrl </text>
<text text-anchor="middle" x="91.5" y="-84.8" font-family="Arial" font-size="14.00" fill="#000000">: MemCtrl</text>
</a>
</g>
</g>
<g id="clust17" class="cluster">
<title>cluster_system_membus</title>
<g id="a_clust17"><a xlink:title="clk_domain=system.clk_domain&#10;eventq_index=0&#10;forward_latency=4&#10;frontend_latency=10&#10;header_latency=1&#10;max_outstanding_snoops=512&#10;max_routing_table_size=512&#10;point_of_coherency=true&#10;point_of_unification=true&#10;power_model=&#10;power_state=system.membus.power_state&#10;&#13;esponse_latency=10&#10;snoop_filter=system.membus.snoop_filter&#10;snoop_response_latency=4&#10;system=system&#10;use_default_range=false&#10;width=16">
<path fill="#6f798c" stroke="#000000" d="M36,-155C36,-155 272,-155 272,-155 278,-155 284,-161 284,-167 284,-167 284,-234 284,-234 284,-240 278,-246 272,-246 272,-246 36,-246 36,-246 30,-246 24,-240 24,-234 24,-234 24,-167 24,-167 24,-161 30,-155 36,-155"/>
<text text-anchor="middle" x="154" y="-230.8" font-family="Arial" font-size="14.00" fill="#000000">membus </text>
<text text-anchor="middle" x="154" y="-215.8" font-family="Arial" font-size="14.00" fill="#000000">: SystemXBar</text>
</a>
</g>
</g>
<!-- system_generator_port -->
<g id="node1" class="node">
<title>system_generator_port</title>
<path fill="#94918b" stroke="#000000" d="M312,-163.5C312,-163.5 342,-163.5 342,-163.5 348,-163.5 354,-169.5 354,-175.5 354,-175.5 354,-187.5 354,-187.5 354,-193.5 348,-199.5 342,-199.5 342,-199.5 312,-199.5 312,-199.5 306,-199.5 300,-193.5 300,-187.5 300,-187.5 300,-175.5 300,-175.5 300,-169.5 306,-163.5 312,-163.5"/>
<text text-anchor="middle" x="327" y="-177.8" font-family="Arial" font-size="14.00" fill="#000000">port</text>
</g>
<!-- system_dcache_ctrl_port -->
<g id="node3" class="node">
<title>system_dcache_ctrl_port</title>
<path fill="#94918b" stroke="#000000" d="M299,-32.5C299,-32.5 329,-32.5 329,-32.5 335,-32.5 341,-38.5 341,-44.5 341,-44.5 341,-56.5 341,-56.5 341,-62.5 335,-68.5 329,-68.5 329,-68.5 299,-68.5 299,-68.5 293,-68.5 287,-62.5 287,-56.5 287,-56.5 287,-44.5 287,-44.5 287,-38.5 293,-32.5 299,-32.5"/>
<text text-anchor="middle" x="314" y="-46.8" font-family="Arial" font-size="14.00" fill="#000000">port</text>
</g>
<!-- system_generator_port&#45;&gt;system_dcache_ctrl_port -->
<g id="edge1" class="edge">
<title>system_generator_port&#45;&gt;system_dcache_ctrl_port</title>
<path fill="none" stroke="black" d="M325.27,-163.37C323.1,-141.78 319.33,-104.41 316.76,-78.85"/>
<polygon fill="black" stroke="black" points="320.22,-78.3 315.73,-68.7 313.25,-79 320.22,-78.3"/>
</g>
<!-- system_dcache_ctrl_req_port -->
<g id="node2" class="node">
<title>system_dcache_ctrl_req_port</title>
<path fill="#94918b" stroke="#000000" d="M213.5,-32.5C213.5,-32.5 256.5,-32.5 256.5,-32.5 262.5,-32.5 268.5,-38.5 268.5,-44.5 268.5,-44.5 268.5,-56.5 268.5,-56.5 268.5,-62.5 262.5,-68.5 256.5,-68.5 256.5,-68.5 213.5,-68.5 213.5,-68.5 207.5,-68.5 201.5,-62.5 201.5,-56.5 201.5,-56.5 201.5,-44.5 201.5,-44.5 201.5,-38.5 207.5,-32.5 213.5,-32.5"/>
<text text-anchor="middle" x="235" y="-46.8" font-family="Arial" font-size="14.00" fill="#000000">req_port</text>
</g>
<!-- system_farMem_ctrl_port -->
<g id="node4" class="node">
<title>system_farMem_ctrl_port</title>
<path fill="#94918b" stroke="#000000" d="M76,-32.5C76,-32.5 106,-32.5 106,-32.5 112,-32.5 118,-38.5 118,-44.5 118,-44.5 118,-56.5 118,-56.5 118,-62.5 112,-68.5 106,-68.5 106,-68.5 76,-68.5 76,-68.5 70,-68.5 64,-62.5 64,-56.5 64,-56.5 64,-44.5 64,-44.5 64,-38.5 70,-32.5 76,-32.5"/>
<text text-anchor="middle" x="91" y="-46.8" font-family="Arial" font-size="14.00" fill="#000000">port</text>
</g>
<!-- system_membus_cpu_side_ports -->
<g id="node5" class="node">
<title>system_membus_cpu_side_ports</title>
<path fill="#586070" stroke="#000000" d="M180,-163.5C180,-163.5 264,-163.5 264,-163.5 270,-163.5 276,-169.5 276,-175.5 276,-175.5 276,-187.5 276,-187.5 276,-193.5 270,-199.5 264,-199.5 264,-199.5 180,-199.5 180,-199.5 174,-199.5 168,-193.5 168,-187.5 168,-187.5 168,-175.5 168,-175.5 168,-169.5 174,-163.5 180,-163.5"/>
<text text-anchor="middle" x="222" y="-177.8" font-family="Arial" font-size="14.00" fill="#000000">cpu_side_ports</text>
</g>
<!-- system_membus_cpu_side_ports&#45;&gt;system_dcache_ctrl_req_port -->
<g id="edge2" class="edge">
<title>system_membus_cpu_side_ports&#45;&gt;system_dcache_ctrl_req_port</title>
<path fill="none" stroke="black" d="M224.75,-153.23C227.32,-127.7 231.09,-90.32 233.27,-68.7"/>
<polygon fill="black" stroke="black" points="221.25,-153.07 223.73,-163.37 228.21,-153.77 221.25,-153.07"/>
</g>
<!-- system_membus_mem_side_ports -->
<g id="node6" class="node">
<title>system_membus_mem_side_ports</title>
<path fill="#586070" stroke="#000000" d="M44,-163.5C44,-163.5 138,-163.5 138,-163.5 144,-163.5 150,-169.5 150,-175.5 150,-175.5 150,-187.5 150,-187.5 150,-193.5 144,-199.5 138,-199.5 138,-199.5 44,-199.5 44,-199.5 38,-199.5 32,-193.5 32,-187.5 32,-187.5 32,-175.5 32,-175.5 32,-169.5 38,-163.5 44,-163.5"/>
<text text-anchor="middle" x="91" y="-177.8" font-family="Arial" font-size="14.00" fill="#000000">mem_side_ports</text>
</g>
<!-- system_membus_mem_side_ports&#45;&gt;system_farMem_ctrl_port -->
<g id="edge3" class="edge">
<title>system_membus_mem_side_ports&#45;&gt;system_farMem_ctrl_port</title>
<path fill="none" stroke="black" d="M91,-163.37C91,-141.78 91,-104.41 91,-78.85"/>
<polygon fill="black" stroke="black" points="94.5,-78.7 91,-68.7 87.5,-78.7 94.5,-78.7"/>
</g>
</g>
</svg>
