<?xml version="1.0" encoding="UTF-8" standalone="no"?>
<!DOCTYPE svg PUBLIC "-//W3C//DTD SVG 1.1//EN"
 "http://www.w3.org/Graphics/SVG/1.1/DTD/svg11.dtd">
<!-- Generated by graphviz version 2.43.0 (0)
 -->
<!-- Title: G Pages: 1 -->
<svg width="379pt" height="354pt"
 viewBox="0.00 0.00 379.00 354.00" xmlns="http://www.w3.org/2000/svg" xmlns:xlink="http://www.w3.org/1999/xlink">
<g id="graph0" class="graph" transform="scale(1 1) rotate(0) translate(4 350)">
<title>G</title>
<polygon fill="white" stroke="transparent" points="-4,4 -4,-350 375,-350 375,4 -4,4"/>
<g id="clust1" class="cluster">
<title>cluster_root</title>
<g id="a_clust1"><a xlink:title="eventq_index=0&#10;full_system=false&#10;sim_quantum=0&#10;time_sync_enable=false&#10;time_sync_period=100000000000&#10;time_sync_spin_threshold=100000000">
<path fill="#bab6ae" stroke="#000000" d="M20,-8C20,-8 351,-8 351,-8 357,-8 363,-14 363,-20 363,-20 363,-326 363,-326 363,-332 357,-338 351,-338 351,-338 20,-338 20,-338 14,-338 8,-332 8,-326 8,-326 8,-20 8,-20 8,-14 14,-8 20,-8"/>
<text text-anchor="middle" x="185.5" y="-322.8" font-family="Arial" font-size="14.00" fill="#000000">root </text>
<text text-anchor="middle" x="185.5" y="-307.8" font-family="Arial" font-size="14.00" fill="#000000">: Root</text>
</a>
</g>
</g>
<g id="clust2" class="cluster">
<title>cluster_system</title>
<g id="a_clust2"><a xlink:title="auto_unlink_shared_backstore=false&#10;cache_line_size=64&#10;eventq_index=0&#10;exit_on_work_items=false&#10;init_param=0&#10;m5ops_base=0&#10;mem_mode=timing&#10;mem_ranges=&#10;memories=system.far_mem_ctrl.dram system.loc_mem_ctrl.dram system.loc_mem_ctrl.dram_2 system.mem_ctrl&#10;mmap_using_noreserve=false&#10;multi_thread=false&#10;&#10;um_work_ids=16&#10;&#13;eadfile=&#10;&#13;edirect_paths=&#10;shadow_rom_ranges=&#10;shared_backstore=&#10;symbolfile=&#10;thermal_components=&#10;thermal_model=Null&#10;work_begin_ckpt_count=0&#10;work_begin_cpu_id_exit=&#45;1&#10;work_begin_exit_count=0&#10;work_cpus_ckpt_count=0&#10;work_end_ckpt_count=0&#10;work_end_exit_count=0&#10;work_item_id=&#45;1&#10;workload=system.workload">
<path fill="#e4e7eb" stroke="#000000" d="M28,-16C28,-16 343,-16 343,-16 349,-16 355,-22 355,-28 355,-28 355,-280 355,-280 355,-286 349,-292 343,-292 343,-292 28,-292 28,-292 22,-292 16,-286 16,-280 16,-280 16,-28 16,-28 16,-22 22,-16 28,-16"/>
<text text-anchor="middle" x="185.5" y="-276.8" font-family="Arial" font-size="14.00" fill="#000000">system </text>
<text text-anchor="middle" x="185.5" y="-261.8" font-family="Arial" font-size="14.00" fill="#000000">: System</text>
</a>
</g>
</g>
<g id="clust7" class="cluster">
<title>cluster_system_generator</title>
<g id="a_clust7"><a xlink:title="clk_domain=system.clk_domain&#10;cpu_id=&#45;1&#10;elastic_req=false&#10;eventq_index=0&#10;max_outstanding_reqs=0&#10;&#10;umThreads=1&#10;power_model=&#10;power_state=system.generator.power_state&#10;progress_check=1000000000&#10;sids=&#10;socket_id=0&#10;ssids=&#10;stream_gen=none&#10;system=system">
<path fill="#bab6ae" stroke="#000000" d="M36,-24C36,-24 116,-24 116,-24 122,-24 128,-30 128,-36 128,-36 128,-103 128,-103 128,-109 122,-115 116,-115 116,-115 36,-115 36,-115 30,-115 24,-109 24,-103 24,-103 24,-36 24,-36 24,-30 30,-24 36,-24"/>
<text text-anchor="middle" x="76" y="-99.8" font-family="Arial" font-size="14.00" fill="#000000">generator </text>
<text text-anchor="middle" x="76" y="-84.8" font-family="Arial" font-size="14.00" fill="#000000">: PyTrafficGen</text>
</a>
</g>
</g>
<g id="clust9" class="cluster">
<title>cluster_system_mem_ctrl</title>
<g id="a_clust9"><a xlink:title="addr_size=64&#10;always_dirty=true&#10;always_hit=false&#10;block_size=64&#10;cache_warmup_ratio=0.7&#10;clk_domain=system.clk_domain&#10;conf_table_reported=true&#10;crb_max_size=32&#10;dram_cache_size=67108864&#10;eventq_index=0&#10;far_burst_size=64&#10;image_file=&#10;in_addr_map=true&#10;kvm_map=true&#10;&#10;oc_burst_size=64&#10;&#10;oc_mem_policy=BearWriteOpt&#10;&#10;ull=false&#10;orb_max_size=256&#10;power_model=&#10;power_state=system.mem_ctrl.power_state&#10;&#13;ange=0:3221225472&#10;static_backend_latency=10000&#10;static_frontend_latency=10000&#10;tRCD_RD=14160&#10;tRL=14160&#10;tRP=14160">
<path fill="#5e5958" stroke="#000000" d="M64,-155C64,-155 328,-155 328,-155 334,-155 340,-161 340,-167 340,-167 340,-234 340,-234 340,-240 334,-246 328,-246 328,-246 64,-246 64,-246 58,-246 52,-240 52,-234 52,-234 52,-167 52,-167 52,-161 58,-155 64,-155"/>
<text text-anchor="middle" x="196" y="-230.8" font-family="Arial" font-size="14.00" fill="#000000">mem_ctrl </text>
<text text-anchor="middle" x="196" y="-215.8" font-family="Arial" font-size="14.00" fill="#000000">: PolicyManager</text>
</a>
</g>
</g>
<g id="clust11" class="cluster">
<title>cluster_system_loc_mem_ctrl</title>
<g id="a_clust11"><a xlink:title="clk_domain=system.clk_domain&#10;command_window=10000&#10;dram=system.loc_mem_ctrl.dram&#10;dram_2=system.loc_mem_ctrl.dram_2&#10;eventq_index=0&#10;mem_sched_policy=frfcfs&#10;min_reads_per_switch=64&#10;min_writes_per_switch=64&#10;power_model=&#10;power_state=system.loc_mem_ctrl.power_state&#10;qos_policy=Null&#10;qos_priorities=1&#10;qos_priority_escalation=false&#10;qos_q_policy=fifo&#10;qos_requestors= &#160;&#160;&#160;&#160;&#160;&#160;&#160;&#160;&#160;&#160;&#160;&#160;&#160;&#160;&#10;qos_syncro_scheduler=false&#10;qos_turnaround_policy=Null&#10;static_backend_latency=10000&#10;static_frontend_latency=10000&#10;system=system&#10;write_high_thresh_perc=85&#10;write_low_thresh_perc=50">
<path fill="#bab6ae" stroke="#000000" d="M148,-24C148,-24 226,-24 226,-24 232,-24 238,-30 238,-36 238,-36 238,-103 238,-103 238,-109 232,-115 226,-115 226,-115 148,-115 148,-115 142,-115 136,-109 136,-103 136,-103 136,-36 136,-36 136,-30 142,-24 148,-24"/>
<text text-anchor="middle" x="187" y="-99.8" font-family="Arial" font-size="14.00" fill="#000000">loc_mem_ctrl </text>
<text text-anchor="middle" x="187" y="-84.8" font-family="Arial" font-size="14.00" fill="#000000">: HBMCtrl</text>
</a>
</g>
</g>
<g id="clust17" class="cluster">
<title>cluster_system_far_mem_ctrl</title>
<g id="a_clust17"><a xlink:title="clk_domain=system.clk_domain&#10;command_window=10000&#10;dram=system.far_mem_ctrl.dram&#10;eventq_index=0&#10;mem_sched_policy=frfcfs&#10;min_reads_per_switch=16&#10;min_writes_per_switch=16&#10;power_model=&#10;power_state=system.far_mem_ctrl.power_state&#10;qos_policy=Null&#10;qos_priorities=1&#10;qos_priority_escalation=false&#10;qos_q_policy=fifo&#10;qos_requestors= &#160;&#160;&#160;&#160;&#160;&#160;&#160;&#160;&#160;&#160;&#160;&#160;&#160;&#160;&#10;qos_syncro_scheduler=false&#10;qos_turnaround_policy=Null&#10;static_backend_latency=10000&#10;static_frontend_latency=10000&#10;system=system&#10;write_high_thresh_perc=85&#10;write_low_thresh_perc=50">
<path fill="#bab6ae" stroke="#000000" d="M258,-24C258,-24 335,-24 335,-24 341,-24 347,-30 347,-36 347,-36 347,-103 347,-103 347,-109 341,-115 335,-115 335,-115 258,-115 258,-115 252,-115 246,-109 246,-103 246,-103 246,-36 246,-36 246,-30 252,-24 258,-24"/>
<text text-anchor="middle" x="296.5" y="-99.8" font-family="Arial" font-size="14.00" fill="#000000">far_mem_ctrl </text>
<text text-anchor="middle" x="296.5" y="-84.8" font-family="Arial" font-size="14.00" fill="#000000">: MemCtrl</text>
</a>
</g>
</g>
<!-- system_generator_port -->
<g id="node1" class="node">
<title>system_generator_port</title>
<path fill="#94918b" stroke="#000000" d="M72,-32.5C72,-32.5 102,-32.5 102,-32.5 108,-32.5 114,-38.5 114,-44.5 114,-44.5 114,-56.5 114,-56.5 114,-62.5 108,-68.5 102,-68.5 102,-68.5 72,-68.5 72,-68.5 66,-68.5 60,-62.5 60,-56.5 60,-56.5 60,-44.5 60,-44.5 60,-38.5 66,-32.5 72,-32.5"/>
<text text-anchor="middle" x="87" y="-46.8" font-family="Arial" font-size="14.00" fill="#000000">port</text>
</g>
<!-- system_mem_ctrl_port -->
<g id="node2" class="node">
<title>system_mem_ctrl_port</title>
<path fill="#4b4746" stroke="#000000" d="M72,-163.5C72,-163.5 102,-163.5 102,-163.5 108,-163.5 114,-169.5 114,-175.5 114,-175.5 114,-187.5 114,-187.5 114,-193.5 108,-199.5 102,-199.5 102,-199.5 72,-199.5 72,-199.5 66,-199.5 60,-193.5 60,-187.5 60,-187.5 60,-175.5 60,-175.5 60,-169.5 66,-163.5 72,-163.5"/>
<text text-anchor="middle" x="87" y="-177.8" font-family="Arial" font-size="14.00" fill="#000000">port</text>
</g>
<!-- system_mem_ctrl_port&#45;&gt;system_generator_port -->
<g id="edge1" class="edge">
<title>system_mem_ctrl_port&#45;&gt;system_generator_port</title>
<path fill="none" stroke="black" d="M87,-153.23C87,-127.7 87,-90.32 87,-68.7"/>
<polygon fill="black" stroke="black" points="83.5,-153.37 87,-163.37 90.5,-153.37 83.5,-153.37"/>
</g>
<!-- system_mem_ctrl_loc_req_port -->
<g id="node3" class="node">
<title>system_mem_ctrl_loc_req_port</title>
<path fill="#4b4746" stroke="#000000" d="M144,-163.5C144,-163.5 212,-163.5 212,-163.5 218,-163.5 224,-169.5 224,-175.5 224,-175.5 224,-187.5 224,-187.5 224,-193.5 218,-199.5 212,-199.5 212,-199.5 144,-199.5 144,-199.5 138,-199.5 132,-193.5 132,-187.5 132,-187.5 132,-175.5 132,-175.5 132,-169.5 138,-163.5 144,-163.5"/>
<text text-anchor="middle" x="178" y="-177.8" font-family="Arial" font-size="14.00" fill="#000000">loc_req_port</text>
</g>
<!-- system_loc_mem_ctrl_port -->
<g id="node5" class="node">
<title>system_loc_mem_ctrl_port</title>
<path fill="#94918b" stroke="#000000" d="M163,-32.5C163,-32.5 193,-32.5 193,-32.5 199,-32.5 205,-38.5 205,-44.5 205,-44.5 205,-56.5 205,-56.5 205,-62.5 199,-68.5 193,-68.5 193,-68.5 163,-68.5 163,-68.5 157,-68.5 151,-62.5 151,-56.5 151,-56.5 151,-44.5 151,-44.5 151,-38.5 157,-32.5 163,-32.5"/>
<text text-anchor="middle" x="178" y="-46.8" font-family="Arial" font-size="14.00" fill="#000000">port</text>
</g>
<!-- system_mem_ctrl_loc_req_port&#45;&gt;system_loc_mem_ctrl_port -->
<g id="edge2" class="edge">
<title>system_mem_ctrl_loc_req_port&#45;&gt;system_loc_mem_ctrl_port</title>
<path fill="none" stroke="black" d="M178,-163.37C178,-141.78 178,-104.41 178,-78.85"/>
<polygon fill="black" stroke="black" points="181.5,-78.7 178,-68.7 174.5,-78.7 181.5,-78.7"/>
</g>
<!-- system_mem_ctrl_far_req_port -->
<g id="node4" class="node">
<title>system_mem_ctrl_far_req_port</title>
<path fill="#4b4746" stroke="#000000" d="M254,-163.5C254,-163.5 320,-163.5 320,-163.5 326,-163.5 332,-169.5 332,-175.5 332,-175.5 332,-187.5 332,-187.5 332,-193.5 326,-199.5 320,-199.5 320,-199.5 254,-199.5 254,-199.5 248,-199.5 242,-193.5 242,-187.5 242,-187.5 242,-175.5 242,-175.5 242,-169.5 248,-163.5 254,-163.5"/>
<text text-anchor="middle" x="287" y="-177.8" font-family="Arial" font-size="14.00" fill="#000000">far_req_port</text>
</g>
<!-- system_far_mem_ctrl_port -->
<g id="node6" class="node">
<title>system_far_mem_ctrl_port</title>
<path fill="#94918b" stroke="#000000" d="M272,-32.5C272,-32.5 302,-32.5 302,-32.5 308,-32.5 314,-38.5 314,-44.5 314,-44.5 314,-56.5 314,-56.5 314,-62.5 308,-68.5 302,-68.5 302,-68.5 272,-68.5 272,-68.5 266,-68.5 260,-62.5 260,-56.5 260,-56.5 260,-44.5 260,-44.5 260,-38.5 266,-32.5 272,-32.5"/>
<text text-anchor="middle" x="287" y="-46.8" font-family="Arial" font-size="14.00" fill="#000000">port</text>
</g>
<!-- system_mem_ctrl_far_req_port&#45;&gt;system_far_mem_ctrl_port -->
<g id="edge3" class="edge">
<title>system_mem_ctrl_far_req_port&#45;&gt;system_far_mem_ctrl_port</title>
<path fill="none" stroke="black" d="M287,-163.37C287,-141.78 287,-104.41 287,-78.85"/>
<polygon fill="black" stroke="black" points="290.5,-78.7 287,-68.7 283.5,-78.7 290.5,-78.7"/>
</g>
</g>
</svg>
