<?xml version="1.0" encoding="UTF-8" standalone="no"?>
<!DOCTYPE svg PUBLIC "-//W3C//DTD SVG 1.1//EN"
 "http://www.w3.org/Graphics/SVG/1.1/DTD/svg11.dtd">
<!-- Generated by graphviz version 2.43.0 (0)
 -->
<!-- Title: G Pages: 1 -->
<svg width="261pt" height="354pt"
 viewBox="0.00 0.00 261.00 354.00" xmlns="http://www.w3.org/2000/svg" xmlns:xlink="http://www.w3.org/1999/xlink">
<g id="graph0" class="graph" transform="scale(1 1) rotate(0) translate(4 350)">
<title>G</title>
<polygon fill="white" stroke="transparent" points="-4,4 -4,-350 257,-350 257,4 -4,4"/>
<g id="clust1" class="cluster">
<title>cluster_root</title>
<g id="a_clust1"><a xlink:title="eventq_index=0&#10;full_system=false&#10;sim_quantum=0&#10;time_sync_enable=false&#10;time_sync_period=100000000000&#10;time_sync_spin_threshold=100000000">
<path fill="#bab6ae" stroke="#000000" d="M20,-8C20,-8 233,-8 233,-8 239,-8 245,-14 245,-20 245,-20 245,-326 245,-326 245,-332 239,-338 233,-338 233,-338 20,-338 20,-338 14,-338 8,-332 8,-326 8,-326 8,-20 8,-20 8,-14 14,-8 20,-8"/>
<text text-anchor="middle" x="126.5" y="-322.8" font-family="Arial" font-size="14.00" fill="#000000">root </text>
<text text-anchor="middle" x="126.5" y="-307.8" font-family="Arial" font-size="14.00" fill="#000000">: Root</text>
</a>
</g>
</g>
<g id="clust2" class="cluster">
<title>cluster_system</title>
<g id="a_clust2"><a xlink:title="auto_unlink_shared_backstore=false&#10;cache_line_size=64&#10;eventq_index=0&#10;exit_on_work_items=false&#10;init_param=0&#10;m5ops_base=0&#10;mem_mode=timing&#10;mem_ranges=0:8589934592&#10;memories=system.dcache_ctrl.dram system.dcache_ctrl.far_memory&#10;mmap_using_noreserve=false&#10;multi_thread=false&#10;&#10;um_work_ids=16&#10;&#13;eadfile=&#10;&#13;edirect_paths=&#10;shadow_rom_ranges=&#10;shared_backstore=&#10;symbolfile=&#10;thermal_components=&#10;thermal_model=Null&#10;work_begin_ckpt_count=0&#10;work_begin_cpu_id_exit=&#45;1&#10;work_begin_exit_count=0&#10;work_cpus_ckpt_count=0&#10;work_end_ckpt_count=0&#10;work_end_exit_count=0&#10;work_item_id=&#45;1&#10;workload=system.workload">
<path fill="#e4e7eb" stroke="#000000" d="M28,-16C28,-16 225,-16 225,-16 231,-16 237,-22 237,-28 237,-28 237,-280 237,-280 237,-286 231,-292 225,-292 225,-292 28,-292 28,-292 22,-292 16,-286 16,-280 16,-280 16,-28 16,-28 16,-22 22,-16 28,-16"/>
<text text-anchor="middle" x="126.5" y="-276.8" font-family="Arial" font-size="14.00" fill="#000000">system </text>
<text text-anchor="middle" x="126.5" y="-261.8" font-family="Arial" font-size="14.00" fill="#000000">: System</text>
</a>
</g>
</g>
<g id="clust7" class="cluster">
<title>cluster_system_generator</title>
<g id="a_clust7"><a xlink:title="clk_domain=system.clk_domain&#10;cpu_id=&#45;1&#10;elastic_req=false&#10;eventq_index=0&#10;max_outstanding_reqs=0&#10;&#10;umThreads=1&#10;power_model=&#10;power_state=system.generator.power_state&#10;progress_check=1000000000&#10;sids=&#10;socket_id=0&#10;ssids=&#10;stream_gen=none&#10;system=system">
<path fill="#bab6ae" stroke="#000000" d="M137,-155C137,-155 217,-155 217,-155 223,-155 229,-161 229,-167 229,-167 229,-234 229,-234 229,-240 223,-246 217,-246 217,-246 137,-246 137,-246 131,-246 125,-240 125,-234 125,-234 125,-167 125,-167 125,-161 131,-155 137,-155"/>
<text text-anchor="middle" x="177" y="-230.8" font-family="Arial" font-size="14.00" fill="#000000">generator </text>
<text text-anchor="middle" x="177" y="-215.8" font-family="Arial" font-size="14.00" fill="#000000">: PyTrafficGen</text>
</a>
</g>
</g>
<g id="clust9" class="cluster">
<title>cluster_system_dcache_ctrl</title>
<g id="a_clust9"><a xlink:title="addr_size=64&#10;block_size=64&#10;clk_domain=system.clk_domain&#10;command_window=10000&#10;crb_max_size=32&#10;dram=system.dcache_ctrl.dram&#10;dram_cache_size=1073741824&#10;eventq_index=0&#10;far_mem_write_queue_max_size=128&#10;far_memory=system.dcache_ctrl.far_memory&#10;mem_sched_policy=frfcfs&#10;min_reads_per_switch=16&#10;min_writes_per_switch=16&#10;orb_max_size=512&#10;power_model=&#10;power_state=system.dcache_ctrl.power_state&#10;qos_policy=Null&#10;qos_priorities=1&#10;qos_priority_escalation=false&#10;qos_q_policy=fifo&#10;qos_requestors= &#160;&#160;&#160;&#160;&#160;&#160;&#160;&#160;&#160;&#160;&#160;&#160;&#160;&#160;&#10;qos_syncro_scheduler=false&#10;qos_turnaround_policy=Null&#10;static_backend_latency=10000&#10;static_frontend_latency=10000&#10;system=system&#10;write_high_thresh_perc=85&#10;write_low_thresh_perc=50">
<path fill="#bab6ae" stroke="#000000" d="M51,-24C51,-24 183,-24 183,-24 189,-24 195,-30 195,-36 195,-36 195,-103 195,-103 195,-109 189,-115 183,-115 183,-115 51,-115 51,-115 45,-115 39,-109 39,-103 39,-103 39,-36 39,-36 39,-30 45,-24 51,-24"/>
<text text-anchor="middle" x="117" y="-99.8" font-family="Arial" font-size="14.00" fill="#000000">dcache_ctrl </text>
<text text-anchor="middle" x="117" y="-84.8" font-family="Arial" font-size="14.00" fill="#000000">: DCacheCtrl</text>
</a>
</g>
</g>
<g id="clust15" class="cluster">
<title>cluster_system_farMem_ctrl</title>
<g id="a_clust15"><a xlink:title="clk_domain=system.clk_domain&#10;command_window=10000&#10;dram=system.dcache_ctrl.far_memory&#10;eventq_index=0&#10;mem_sched_policy=frfcfs&#10;min_reads_per_switch=16&#10;min_writes_per_switch=16&#10;power_model=&#10;power_state=system.farMem_ctrl.power_state&#10;qos_policy=Null&#10;qos_priorities=1&#10;qos_priority_escalation=false&#10;qos_q_policy=fifo&#10;qos_requestors= &#160;&#160;&#160;&#160;&#160;&#160;&#160;&#160;&#160;&#160;&#160;&#160;&#160;&#160;&#10;qos_syncro_scheduler=false&#10;qos_turnaround_policy=Null&#10;static_backend_latency=10000&#10;static_frontend_latency=10000&#10;system=system&#10;write_high_thresh_perc=85&#10;write_low_thresh_perc=50">
<path fill="#bab6ae" stroke="#000000" d="M36,-155C36,-155 105,-155 105,-155 111,-155 117,-161 117,-167 117,-167 117,-234 117,-234 117,-240 111,-246 105,-246 105,-246 36,-246 36,-246 30,-246 24,-240 24,-234 24,-234 24,-167 24,-167 24,-161 30,-155 36,-155"/>
<text text-anchor="middle" x="70.5" y="-230.8" font-family="Arial" font-size="14.00" fill="#000000">farMem_ctrl </text>
<text text-anchor="middle" x="70.5" y="-215.8" font-family="Arial" font-size="14.00" fill="#000000">: MemCtrl</text>
</a>
</g>
</g>
<!-- system_generator_port -->
<g id="node1" class="node">
<title>system_generator_port</title>
<path fill="#94918b" stroke="#000000" d="M145,-163.5C145,-163.5 175,-163.5 175,-163.5 181,-163.5 187,-169.5 187,-175.5 187,-175.5 187,-187.5 187,-187.5 187,-193.5 181,-199.5 175,-199.5 175,-199.5 145,-199.5 145,-199.5 139,-199.5 133,-193.5 133,-187.5 133,-187.5 133,-175.5 133,-175.5 133,-169.5 139,-163.5 145,-163.5"/>
<text text-anchor="middle" x="160" y="-177.8" font-family="Arial" font-size="14.00" fill="#000000">port</text>
</g>
<!-- system_dcache_ctrl_port -->
<g id="node3" class="node">
<title>system_dcache_ctrl_port</title>
<path fill="#94918b" stroke="#000000" d="M145,-32.5C145,-32.5 175,-32.5 175,-32.5 181,-32.5 187,-38.5 187,-44.5 187,-44.5 187,-56.5 187,-56.5 187,-62.5 181,-68.5 175,-68.5 175,-68.5 145,-68.5 145,-68.5 139,-68.5 133,-62.5 133,-56.5 133,-56.5 133,-44.5 133,-44.5 133,-38.5 139,-32.5 145,-32.5"/>
<text text-anchor="middle" x="160" y="-46.8" font-family="Arial" font-size="14.00" fill="#000000">port</text>
</g>
<!-- system_generator_port&#45;&gt;system_dcache_ctrl_port -->
<g id="edge1" class="edge">
<title>system_generator_port&#45;&gt;system_dcache_ctrl_port</title>
<path fill="none" stroke="black" d="M160,-163.37C160,-141.78 160,-104.41 160,-78.85"/>
<polygon fill="black" stroke="black" points="163.5,-78.7 160,-68.7 156.5,-78.7 163.5,-78.7"/>
</g>
<!-- system_dcache_ctrl_req_port -->
<g id="node2" class="node">
<title>system_dcache_ctrl_req_port</title>
<path fill="#94918b" stroke="#000000" d="M59.5,-32.5C59.5,-32.5 102.5,-32.5 102.5,-32.5 108.5,-32.5 114.5,-38.5 114.5,-44.5 114.5,-44.5 114.5,-56.5 114.5,-56.5 114.5,-62.5 108.5,-68.5 102.5,-68.5 102.5,-68.5 59.5,-68.5 59.5,-68.5 53.5,-68.5 47.5,-62.5 47.5,-56.5 47.5,-56.5 47.5,-44.5 47.5,-44.5 47.5,-38.5 53.5,-32.5 59.5,-32.5"/>
<text text-anchor="middle" x="81" y="-46.8" font-family="Arial" font-size="14.00" fill="#000000">req_port</text>
</g>
<!-- system_farMem_ctrl_port -->
<g id="node4" class="node">
<title>system_farMem_ctrl_port</title>
<path fill="#94918b" stroke="#000000" d="M66,-163.5C66,-163.5 96,-163.5 96,-163.5 102,-163.5 108,-169.5 108,-175.5 108,-175.5 108,-187.5 108,-187.5 108,-193.5 102,-199.5 96,-199.5 96,-199.5 66,-199.5 66,-199.5 60,-199.5 54,-193.5 54,-187.5 54,-187.5 54,-175.5 54,-175.5 54,-169.5 60,-163.5 66,-163.5"/>
<text text-anchor="middle" x="81" y="-177.8" font-family="Arial" font-size="14.00" fill="#000000">port</text>
</g>
<!-- system_farMem_ctrl_port&#45;&gt;system_dcache_ctrl_req_port -->
<g id="edge2" class="edge">
<title>system_farMem_ctrl_port&#45;&gt;system_dcache_ctrl_req_port</title>
<path fill="none" stroke="black" d="M81,-153.23C81,-127.7 81,-90.32 81,-68.7"/>
<polygon fill="black" stroke="black" points="77.5,-153.37 81,-163.37 84.5,-153.37 77.5,-153.37"/>
</g>
</g>
</svg>
